HIERARCHY
ROOT Hips
{
	OFFSET 0.000000 88.474243 0.000000
	CHANNELS 6 Xposition Yposition Zposition Zrotation Yrotation Xrotation 
	JOINT Hips_Spine
	{
		OFFSET 0.000000 0.000000 0.000000
		CHANNELS 3 Zrotation Yrotation Xrotation
		JOINT Spine
		{
			OFFSET 0.005100 8.711998 -0.691000
			CHANNELS 3 Zrotation Yrotation Xrotation
			JOINT Spine1
			{
				OFFSET -0.009200 8.660301 -1.275000
				CHANNELS 3 Zrotation Yrotation Xrotation
				JOINT Spine2
				{
					OFFSET 0.006300 9.852501 -1.857000
					CHANNELS 3 Zrotation Yrotation Xrotation
					JOINT Spine2_Neck
					{
						OFFSET 0.000000 0.000000 0.000000
						CHANNELS 3 Zrotation Yrotation Xrotation
						JOINT Neck
						{
							OFFSET 0.016300 11.420799 -0.263300
							CHANNELS 3 Zrotation Yrotation Xrotation
							End Site #name: Head
							{
								OFFSET -0.019200 9.262405 2.362500
							}
						}
					}
					JOINT Spine2_LeftShoulder
					{
						OFFSET 0.000000 0.000000 0.000000
						CHANNELS 3 Zrotation Yrotation Xrotation
						JOINT LeftShoulder
						{
							OFFSET 5.616900 6.732201 -0.345700
							CHANNELS 3 Zrotation Yrotation Xrotation
							JOINT LeftArm
							{
								OFFSET 10.664888 -0.183372 -2.440700
								CHANNELS 3 Zrotation Yrotation Xrotation
								JOINT LeftForeArm
								{
									OFFSET 27.459126 0.000000 0.000000
									CHANNELS 3 Zrotation Yrotation Xrotation
									End Site #name: LeftHand
									{
										OFFSET 21.306858 0.000000 0.000000
									}
								}
							}
						}
					}
					JOINT Spine2_RightShoulder
					{
						OFFSET 0.000000 0.000000 0.000000
						CHANNELS 3 Zrotation Yrotation Xrotation
						JOINT RightShoulder
						{
							OFFSET -5.580300 6.737503 -0.344400
							CHANNELS 3 Zrotation Yrotation Xrotation
							JOINT RightArm
							{
								OFFSET -10.679335 -0.188484 -2.383900
								CHANNELS 3 Zrotation Yrotation Xrotation
								JOINT RightForeArm
								{
									OFFSET -27.503529 0.000000 0.000000
									CHANNELS 3 Zrotation Yrotation Xrotation
									End Site #name: RightHand
									{
										OFFSET -21.306808 0.000000 0.000000
									}
								}
							}
						}
					}
				}
			}
		}
	}
	JOINT Hips_LeftUpLeg
	{
		OFFSET 0.000000 0.000000 0.000000
		CHANNELS 3 Zrotation Yrotation Xrotation
		JOINT LeftUpLeg
		{
			OFFSET 6.857700 -6.739601 0.312100
			CHANNELS 3 Zrotation Yrotation Xrotation
			JOINT LeftLeg
			{
				OFFSET -0.367590 -34.731552 -4.572400
				CHANNELS 3 Zrotation Yrotation Xrotation
				End Site #name: LeftFoot
				{
					OFFSET 0.367590 -34.656704 -6.067400
				}
			}
		}
	}
	JOINT Hips_RightUpLeg
	{
		OFFSET 0.000000 0.000000 0.000000
		CHANNELS 3 Zrotation Yrotation Xrotation
		JOINT RightUpLeg
		{
			OFFSET -6.876100 -6.733299 0.301000
			CHANNELS 3 Zrotation Yrotation Xrotation
			JOINT RightLeg
			{
				OFFSET 0.347353 -34.795158 -4.515900
				CHANNELS 3 Zrotation Yrotation Xrotation
				End Site #name: RightFoot
				{
					OFFSET -0.347353 -34.589367 -6.070300
				}
			}
		}
	}
}
MOTION
Frames: 9
Frame Time: 0.041667
0.033479 -0.021224 -0.070802 178.614429 31.461213 -177.597427 -0.000000 -0.000000 0.000000 -3.758828 2.231351 -1.399539 1.370364 -0.551161 0.961192 0.000000 0.000000 0.000000 1.050070 -1.131364 -1.483163 -1.488839 -6.993731 -1.866774 0.751119 -0.247854 -0.395166 -3.253074 -7.933052 1.732647 -80.015583 -7.373864 12.094141 0.304079 -14.473919 2.874813 0.603956 -0.694026 -0.270598 17.637260 13.288267 4.630813 51.377914 13.990255 -4.608221 -4.931782 66.618940 0.541401 0.000000 -0.000000 -0.000000 -7.536507 18.360234 -13.557088 -6.581701 -37.786077 -2.736157 -0.000000 -0.000000 -0.000000 -8.771768 -29.917086 -7.669799 -15.307168 -10.357584 16.770432 
-0.283831 -0.230399 -0.187569 176.990132 44.142298 -178.036494 -0.000000 -0.000000 0.000000 -5.462326 2.199288 1.998774 1.760117 -0.677838 0.456298 0.000000 0.000000 0.000000 1.597687 -0.766577 -1.027048 -0.859119 -12.862809 -1.274949 1.054328 -0.389406 -1.085274 -1.653407 -9.868950 2.041160 -85.959062 -14.018047 9.639914 -1.192121 -10.864287 1.618618 1.499367 -1.047883 0.680639 23.004629 16.199787 4.790407 50.055224 15.574928 -6.654925 0.095765 52.030312 3.432337 0.000000 -0.000000 -0.000000 -6.050834 19.047343 -11.644400 -3.353234 -35.250893 -8.913357 -0.000000 -0.000000 -0.000000 -9.006820 -35.788628 -6.646081 -13.304203 -6.316807 15.707797 
-0.417106 -0.344298 -0.260338 176.312049 34.683123 -178.496238 -0.000000 -0.000000 0.000000 -6.432116 -0.907457 2.428303 1.949910 -0.757502 0.277467 0.000000 0.000000 0.000000 2.015462 -0.963946 -0.938634 -0.841044 -20.489025 -1.349613 1.130447 -0.375821 -1.485823 -0.239151 -9.011256 1.351497 -86.711324 -15.163851 4.375793 -0.906787 -6.318815 1.713584 1.794020 -1.215176 0.073022 23.821817 17.860615 5.471371 50.657845 17.799129 -0.783526 2.745001 49.812232 6.896802 -0.000000 -0.000000 -0.000000 -4.741381 20.111595 -10.053914 -2.005844 -33.461395 -11.136521 -0.000000 -0.000000 -0.000000 -9.263024 -40.219155 -4.576794 -13.320483 -5.884400 16.199596 
-0.378925 -0.419966 -0.316344 176.877349 23.316231 -178.863059 -0.000000 -0.000000 0.000000 -6.389625 -2.026120 3.260025 1.563106 -1.039758 -0.077461 0.000000 0.000000 0.000000 1.864951 -1.229307 -0.842200 -1.044630 -24.255163 -1.601340 0.952144 -0.604013 -1.713546 0.068661 -7.923358 0.998669 -87.359019 -16.338732 2.436587 -0.572541 -4.571985 1.383579 1.475822 -1.648386 -0.162680 21.896179 16.987088 5.283805 51.381242 19.443929 3.045897 5.116625 50.320194 8.881254 -0.000000 0.000000 -0.000000 -3.878610 20.699278 -8.779024 -1.165706 -33.234557 -12.127694 -0.000000 -0.000000 -0.000000 -9.664794 -46.367532 -3.663989 -13.234401 -4.591824 17.067448 
-0.262795 -0.452423 -0.391550 176.846585 12.718817 -179.211887 -0.000000 -0.000000 0.000000 -5.781445 -2.291273 3.628272 1.161051 -1.262946 -0.222497 0.000000 0.000000 0.000000 1.605080 -1.428995 -0.341931 -1.055104 -25.554762 -1.842113 0.644793 -0.887924 -1.615211 -0.089392 -6.859481 0.808147 -87.700959 -16.897689 2.839346 0.115992 -5.153093 1.618265 1.123732 -1.886713 -0.037732 19.126368 15.161632 4.681426 52.521192 19.658739 6.543622 6.497227 51.828468 9.312688 -0.000000 0.000000 -0.000000 -3.658009 21.120187 -8.284315 -0.726245 -33.384561 -12.658781 -0.000000 -0.000000 -0.000000 -9.963419 -51.443367 -3.152020 -13.573336 -3.581139 17.868114 
-0.131149 -0.460459 -0.492908 176.262512 4.031033 -179.458923 -0.000000 -0.000000 0.000000 -5.120358 -2.228567 3.987931 0.764350 -1.443716 0.106862 0.000000 0.000000 0.000000 1.307933 -1.528231 0.424819 -0.837835 -24.980939 -2.385627 0.407628 -1.035624 -1.323433 -0.166595 -5.674700 0.472393 -87.962603 -16.880200 3.865473 1.427829 -6.726427 2.425801 0.815886 -1.987202 0.074890 17.348439 13.699912 4.203873 54.265681 18.134156 11.137094 5.782878 52.501910 8.416115 -0.000000 0.000000 -0.000000 -3.787514 21.060689 -8.237166 -0.528246 -33.318443 -12.829967 -0.000000 -0.000000 -0.000000 -9.995579 -55.298995 -3.257744 -14.252637 -3.284897 18.564790 
0.008104 -0.451964 -0.609195 175.540522 -2.248905 -179.559369 -0.000000 -0.000000 0.000000 -4.518481 -1.380542 4.333889 0.435699 -1.471200 0.608848 0.000000 0.000000 0.000000 1.023841 -1.547217 1.172887 -0.705509 -23.529607 -2.872848 0.211299 -1.105119 -0.931693 -0.289526 -4.681555 0.243342 -87.616940 -16.952526 4.806955 2.777860 -8.577439 3.824492 0.517844 -2.032781 0.208598 16.276241 12.776655 3.655879 55.212634 16.518536 13.073441 5.714267 50.799211 8.252174 -0.000000 0.000000 -0.000000 -4.031234 20.698483 -8.457592 -0.451802 -33.104745 -12.972940 -0.000000 -0.000000 -0.000000 -9.963549 -57.706269 -3.478742 -14.884281 -3.496353 18.755938 
0.150772 -0.437447 -0.730941 174.940210 -7.082195 -179.506444 -0.000000 -0.000000 0.000000 -4.258627 -0.307928 4.708407 0.153580 -1.390588 1.171297 0.000000 0.000000 0.000000 0.724014 -1.503116 1.748402 -0.800890 -22.284880 -3.108614 0.018440 -1.125981 -0.555627 -0.391659 -4.199276 0.259150 -87.047518 -17.545376 6.758998 3.822570 -10.835480 4.706346 0.205272 -2.029720 0.304506 15.555804 12.163660 3.187674 55.733686 15.176171 13.862946 6.358200 48.031201 8.767242 -0.000000 0.000000 -0.000000 -4.221454 20.279813 -8.645139 -0.387071 -32.798027 -13.163059 -0.000000 -0.000000 -0.000000 -10.034609 -59.063139 -3.612367 -15.398027 -3.793542 18.608879 
0.295612 -0.419884 -0.850790 174.403072 -11.266716 -179.325253 -0.000000 -0.000000 0.000000 -4.374167 0.426261 5.037045 -0.127669 -1.352908 1.564827 0.000000 0.000000 0.000000 0.454147 -1.436676 2.126261 -0.946095 -21.664684 -3.259426 -0.163459 -1.123098 -0.291035 -0.464538 -4.129112 0.477571 -85.861585 -18.156190 8.401707 4.504589 -13.761044 4.794576 -0.068444 -2.031754 0.383939 15.116380 11.776548 2.880810 56.224922 14.360863 13.701193 7.675368 44.325382 9.656917 0.000000 0.000000 -0.000000 -4.282380 19.958035 -8.679736 -0.345542 -32.511386 -13.252580 -0.000000 -0.000000 -0.000000 -10.178055 -59.717254 -3.632267 -15.540747 -3.979999 18.276699 
